HIERARCHY
ROOT Bip001_Pelvis
{
  OFFSET -1.80259 95.4564 -9.99843
  CHANNELS 6 Xposition Yposition Zposition Zrotation Xrotation Yrotation
  JOINT Bip001_Spine
  {
    OFFSET 1.44608e-005 10.4157 -0.0118244
    CHANNELS 3 Zrotation Xrotation Yrotation
    JOINT Bip001_L_Thigh
    {
      OFFSET 11.2582 -10.4157 0.0118432
      CHANNELS 3 Zrotation Xrotation Yrotation
      JOINT Bip001_L_Calf
      {
        OFFSET -0.720717 -44.8687 0.366937
        CHANNELS 3 Zrotation Xrotation Yrotation
        JOINT Bip001_L_Foot
        {
          OFFSET -0.664439 -41.3745 -3.62995
          CHANNELS 3 Zrotation Xrotation Yrotation
          JOINT Bip001_L_Toe0
          {
            OFFSET 0.0541047 -10.4146 13.4033
            CHANNELS 3 Zrotation Xrotation Yrotation
            End Site
            {
              OFFSET -1.04503e-005 0 7.70137
            }
          }
        }
      }
    }
    JOINT Bip001_R_Thigh
    {
      OFFSET -11.2582 -10.4156 0.0118122
      CHANNELS 3 Zrotation Xrotation Yrotation
      JOINT Bip001_R_Calf
      {
        OFFSET 0.72059 -44.8687 0.36676
        CHANNELS 3 Zrotation Xrotation Yrotation
        JOINT Bip001_R_Foot
        {
          OFFSET 0.664321 -41.3745 -3.62979
          CHANNELS 3 Zrotation Xrotation Yrotation
          JOINT Bip001_R_Toe0
          {
            OFFSET -0.05417 -10.4146 13.4033
            CHANNELS 3 Zrotation Xrotation Yrotation
            End Site
            {
              OFFSET -1.04873e-005 0 7.70137
            }
          }
        }
      }
    }
    JOINT Bip001_Spine1
    {
      OFFSET 1.90638e-005 14.8539 1.10727
      CHANNELS 3 Zrotation Xrotation Yrotation
      JOINT Bip001_Spine2
      {
        OFFSET 2.28934e-005 14.7848 -1.7233
        CHANNELS 3 Zrotation Xrotation Yrotation
        JOINT Bip001_Neck
        {
          OFFSET 2.24514e-005 15.6905 -0.498826
          CHANNELS 3 Zrotation Xrotation Yrotation
          JOINT Bip001_L_Clavicle
          {
            OFFSET 6.17691 -0.000591152 0.00852867
            CHANNELS 3 Zrotation Xrotation Yrotation
            JOINT Bip001_L_UpperArm
            {
              OFFSET 11.773 -0.0611878 0.00197697
              CHANNELS 3 Zrotation Xrotation Yrotation
              JOINT Bip001_L_Forearm
              {
                OFFSET 26.4514 0.0817568 -2.19579
                CHANNELS 3 Zrotation Xrotation Yrotation
                JOINT Bip001_L_Hand
                {
                  OFFSET 32.8677 0.156744 1.67112
                  CHANNELS 3 Zrotation Xrotation Yrotation
                  JOINT Bip001_L_Finger0
                  {
                    OFFSET 6.16267 -2.25226 6.01674
                    CHANNELS 3 Zrotation Xrotation Yrotation
                    End Site
                    {
                      OFFSET 4.30498 -1.46663 0.618148
                    }
                  }
                  JOINT Bip001_L_Finger1
                  {
                    OFFSET 11.2957 -0.718374 -0.201963
                    CHANNELS 3 Zrotation Xrotation Yrotation
                    End Site
                    {
                      OFFSET 6.31952 -0.405163 -0.0802303
                    }
                  }
                }
              }
            }
          }
          JOINT Bip001_R_Clavicle
          {
            OFFSET -6.17691 -0.000574027 0.00851165
            CHANNELS 3 Zrotation Xrotation Yrotation
            JOINT Bip001_R_UpperArm
            {
              OFFSET -11.773 -0.0611516 0.00194365
              CHANNELS 3 Zrotation Xrotation Yrotation
              JOINT Bip001_R_Forearm
              {
                OFFSET -26.4514 0.0822336 -2.19736
                CHANNELS 3 Zrotation Xrotation Yrotation
                JOINT Bip001_R_Hand
                {
                  OFFSET -32.8677 0.156816 1.67144
                  CHANNELS 3 Zrotation Xrotation Yrotation
                  JOINT Bip001_R_Finger0
                  {
                    OFFSET -6.16269 -2.25224 6.01673
                    CHANNELS 3 Zrotation Xrotation Yrotation
                    End Site
                    {
                      OFFSET -4.30499 -1.46661 0.618137
                    }
                  }
                  JOINT Bip001_R_Finger1
                  {
                    OFFSET -11.2957 -0.718343 -0.201995
                    CHANNELS 3 Zrotation Xrotation Yrotation
                    End Site
                    {
                      OFFSET -6.31952 -0.405145 -0.0802479
                    }
                  }
                }
              }
            }
          }
          JOINT Bip001_Head
          {
            OFFSET 1.11782e-005 11.4912 2.09908
            CHANNELS 3 Zrotation Xrotation Yrotation
            End Site
            {
              OFFSET 2.95144e-005 21.2823 -2.83069e-005
            }
          }
        }
      }
    }
  }
}
MOTION
Frames:	10
Frame Time:	0.0333333
-1.82125 95.4624 -9.90152 -0.0827628 -6.67538 2.03071 -0.483423 3.0376 0.424042 0.308383 -3.02924 -8.19932 -0.0253853 11.6429 -0.182042 0.775596 -5.10494 5.0159 -1.06927e-007 -1.98004e-009 -1.06497e-007 0.38026 -4.62381 3.76638 0.0151406 10.4831 0.16611 -1.54476 -2.59437 -7.51391 -5.33732e-010 5.33453e-008 1.14615e-009 -0.100064 6.0799 0.73404 -0.0997881 6.0803 0.73018 2.98478 6.51401 -2.27334 -31.3849 -3.04465 -8.60699 -40.9653 52.4435 -10.839 -2.17898 0.503071 -22.4136 5.79908 9.62867 1.81403 1.59028e-015 -6.36111e-015 -1.59028e-015 3.18055e-015 -6.36111e-015 -1.59028e-015 22.3068 -5.20889 0.964792 46.4169 50.0547 12.7409 1.59523 0.281249 16.1907 -4.98512 -7.88608 -5.4925 -8.82781e-032 6.36111e-015 7.95139e-016 1.59028e-015 0 1.59028e-015 -0.387758 -12.499 -1.19801 
-1.81587 95.4633 -9.86381 -0.0892172 -6.64049 1.98558 -0.494021 3.01182 0.435178 0.315983 -2.98832 -8.16716 -0.0255565 11.5901 -0.182007 0.760174 -5.04019 4.90561 -1.06927e-007 -1.98004e-009 -1.06497e-007 0.380543 -4.6238 3.76988 0.0150675 10.5079 0.166123 -1.54726 -2.63967 -7.43989 -5.33733e-010 5.33453e-008 1.14615e-009 -0.151342 6.02785 0.773911 -0.151094 6.02831 0.77019 3.1245 6.40081 -2.36977 -31.2683 -3.08165 -8.29587 -41.8387 50.8546 -10.1541 -2.23843 0.530178 -23.0639 5.09294 11.3967 2.27264 3.18055e-015 0 7.95139e-016 3.18055e-015 -3.18056e-015 2.38542e-015 22.0815 -5.03777 1.14493 47.2475 48.6598 11.8115 1.64549 0.294523 16.7085 -5.28131 -6.56063 -5.66154 7.95139e-016 0 7.95139e-016 -7.95139e-016 6.36111e-015 -0 0.00110341 -12.2471 -1.36476 
-1.81281 95.46 -9.82414 -0.0987728 -6.59983 1.9147 -0.511799 2.99755 0.491511 0.349765 -2.96347 -8.14249 -0.0255944 11.5784 -0.182 0.832898 -5.08406 5.16011 -1.06927e-007 -1.98004e-009 -1.06497e-007 0.386148 -4.64754 3.688 0.0150137 10.5261 0.166133 -1.54559 -2.64737 -7.38292 -5.33733e-010 5.33453e-008 1.14615e-009 -0.195401 5.99909 0.888682 -0.195146 5.99962 0.885026 3.26574 6.25878 -2.56362 -31.4924 -3.10448 -7.91903 -42.1264 49.1338 -9.70037 -2.31135 0.56457 -23.8664 4.27849 13.1623 2.81486 1.59028e-015 -3.18055e-015 -1.59028e-015 1.59028e-015 -3.18056e-015 -1.59028e-015 21.8351 -4.82644 1.33918 48.0836 47.2415 10.9961 1.67971 0.306332 17.0695 -5.5332 -5.25263 -5.78719 3.97569e-015 6.36111e-015 7.95139e-016 3.18055e-015 3.18056e-015 1.59028e-015 0.192283 -12.1286 -1.66083 
-1.79423 95.4659 -9.77156 -0.104551 -6.54806 1.76506 -0.544968 2.98695 0.597319 0.368454 -2.87815 -8.1351 -0.0260005 11.4531 -0.181919 0.846202 -5.07703 5.20656 -1.06927e-007 -1.98004e-009 -1.06497e-007 0.385645 -4.69852 3.6318 0.0149388 10.5515 0.166147 -1.54625 -2.67464 -7.32249 -5.33733e-010 5.33453e-008 1.14615e-009 -0.284071 5.97734 1.10519 -0.283841 5.97798 1.10163 3.57234 6.12938 -2.83607 -31.8358 -3.16453 -7.55142 -42.2925 47.1301 -9.39565 -2.38232 0.599231 -24.6523 3.6341 15.0938 3.21566 3.18055e-015 0 -2.38542e-015 4.41391e-032 3.18056e-015 -7.95139e-016 21.484 -4.60937 1.60106 48.8225 46.978 10.1586 1.7012 0.313538 17.2946 -6.26858 -4.89854 -5.59631 -1.59028e-015 -3.18055e-015 7.95139e-016 -1.59028e-015 0 7.95139e-016 0.492451 -11.762 -2.1922 
-1.76469 95.4691 -9.66718 -0.0772964 -6.58828 1.60353 -0.552135 3.06098 0.744011 0.360711 -2.72346 -7.91943 -0.02657 11.2772 -0.181806 0.856761 -4.98586 4.98993 -1.06927e-007 -1.98004e-009 -1.06497e-007 0.310424 -4.69553 3.39726 0.0149084 10.5618 0.166152 -1.55382 -2.67972 -7.1242 -5.33733e-010 5.33453e-008 1.14615e-009 -0.354423 6.12477 1.40456 -0.354229 6.12556 1.4011 3.66136 5.29513 -3.13904 -32.0792 -2.6325 -6.79027 -41.8322 45.3008 -9.7007 -2.44994 0.633444 -25.4068 3.16846 16.5806 3.35676 3.18055e-015 3.18055e-015 -2.38542e-015 4.77083e-015 3.18056e-015 -1.59028e-015 21.292 -3.77327 1.44714 48.8929 48.0519 9.7009 1.75057 0.331473 17.8175 -7.16931 -6.26953 -5.61111 -8.82781e-032 -3.18055e-015 -1.59028e-015 1.59028e-015 -9.54167e-015 -2.38542e-015 0.862133 -12.2962 -2.74193 
-1.7876 95.4645 -9.69481 -0.129594 -6.44559 1.72168 -0.577101 3.08385 0.855006 0.367057 -2.97896 -8.5453 -0.0261397 11.4102 -0.181891 0.815263 -4.98856 5.23042 -1.06927e-007 -1.98004e-009 -1.06497e-007 0.389458 -4.88594 3.25262 0.0149184 10.5584 0.166151 -1.5671 -2.65775 -7.18392 -5.33732e-010 5.33453e-008 1.14615e-009 -0.363664 6.17051 1.62436 -0.363457 6.17146 1.62066 3.79719 4.82415 -3.49625 -32.3669 -2.4293 -6.23646 -41.4432 44.4806 -9.91091 -2.49691 0.657867 -25.9332 3.27671 17.0655 3.2885 1.59028e-015 0 -0 0 0 -7.95139e-016 21.0204 -3.23576 1.56939 49.2521 48.5003 9.23566 1.75974 0.336346 17.9012 -7.6252 -7.42463 -5.57602 1.59028e-015 -3.18055e-015 -7.95139e-016 -8.82782e-032 -6.36111e-015 -7.95139e-016 1.31384 -12.9046 -3.41078 
-1.77457 95.4851 -9.65866 -0.12937 -6.34316 1.7667 -0.616536 3.09768 0.98995 0.368349 -3.03705 -8.85421 -0.0261945 11.3932 -0.18188 0.830957 -5.23295 5.17204 -1.06927e-007 -1.98004e-009 -1.06497e-007 0.387533 -4.977 3.0682 0.0149065 10.5625 0.166153 -1.60701 -2.74005 -7.31611 -5.33733e-010 5.33453e-008 1.14615e-009 -0.437359 6.19729 1.89598 -0.437178 6.19845 1.8922 4.00411 4.63905 -3.88936 -32.5741 -2.48901 -5.82397 -41.2286 44.7187 -9.98656 -2.5207 0.667143 -26.1878 3.95359 16.499 3.01507 -1.32417e-031 3.18055e-015 2.38542e-015 -0 0 1.59028e-015 20.812 -2.891 2.02442 49.7539 47.7871 8.58542 1.7501 0.333609 17.82 -7.23125 -7.62109 -5.52696 -7.95139e-016 -3.18055e-015 -1.59028e-015 -7.95139e-016 -3.18056e-015 -2.38542e-015 2.07249 -13.4125 -4.37546 
-1.7683 95.495 -9.61308 -0.137396 -6.2023 1.93895 -0.656151 3.11867 1.10462 0.458659 -3.17598 -8.70151 -0.0262462 11.407 -0.152519 0.848415 -5.31428 4.92866 -1.06927e-007 -1.98004e-009 -1.06497e-007 0.403555 -5.09828 2.75433 0.0149656 10.5547 0.196208 -1.60727 -2.79318 -7.24772 -5.33733e-010 5.33453e-008 1.14615e-009 -0.529809 6.23813 2.13085 -0.529632 6.23942 2.12711 4.18464 4.32127 -4.28269 -32.6397 -2.43252 -5.34026 -40.9144 45.3343 -10.2271 -2.52296 0.667501 -26.2587 4.93304 15.4248 2.5324 6.36111e-015 0 -1.59028e-015 6.36111e-015 0 -2.38542e-015 20.7601 -2.39629 2.4789 50.0558 47.6601 8.07929 1.72509 0.322139 17.5478 -6.85373 -8.38639 -5.41159 -7.95139e-016 0 -1.59028e-015 -7.95139e-016 0 -7.95139e-016 3.54507 -14.1582 -5.99296 
-1.81424 95.492 -9.59787 -0.190603 -5.93323 2.24797 -0.717948 3.13343 1.19866 0.633827 -3.55122 -8.77046 -0.0178382 11.54 -0.051831 0.750231 -5.20586 5.05499 -1.06927e-007 -1.98004e-009 -1.06497e-007 0.52441 -5.3293 2.42195 0.0227057 10.4935 0.291081 -1.59085 -2.70362 -7.24764 -5.33734e-010 5.33453e-008 1.14615e-009 -0.570233 6.26803 2.32214 -0.570041 6.26955 2.31796 4.41363 4.0576 -4.79118 -32.8952 -2.47085 -4.85361 -40.1454 46.216 -10.7696 -2.52134 0.666821 -26.194 5.64612 14.1583 2.1785 -4.41391e-032 3.18055e-015 7.95139e-016 1.59028e-015 9.54167e-015 7.95139e-016 20.5432 -1.91914 3.088 50.3306 49.0701 7.59202 1.7047 0.314558 17.3309 -7.27034 -10.704 -5.05725 -1.59028e-015 3.18055e-015 7.95139e-016 -1.59028e-015 0 7.95139e-016 3.09725 -14.8392 -8.77238 
-1.77914 95.5208 -9.6315 -0.141332 -5.39476 2.42466 -0.758594 3.10559 1.28832 0.653323 -3.96813 -8.77437 -0.0144585 11.3227 0.055277 0.44091 -5.36488 4.26942 -1.06927e-007 -1.98004e-009 -1.06497e-007 0.461293 -5.85282 2.41295 0.0262344 10.4929 0.379649 -1.56058 -2.68405 -7.64988 -5.33732e-010 5.33453e-008 1.14615e-009 -0.664823 6.20883 2.53095 -0.664579 6.21048 2.52685 4.29688 3.73108 -5.29325 -33.0765 -2.43653 -4.30768 -39.0209 46.5428 -11.3278 -2.5225 0.66981 -26.217 5.67052 13.5162 2.11132 1.59028e-015 -3.18055e-015 4.77083e-015 -1.59028e-015 -3.18056e-015 6.36111e-015 20.3076 -1.37031 3.74359 50.9059 51.2005 7.1099 1.65413 0.297389 16.799 -7.71673 -13.2073 -5.01536 7.95139e-016 3.18055e-015 -0 7.95139e-016 6.36111e-015 -3.97569e-016 2.50366 -16.6137 -13.1982 
